<?xml version="1.0" standalone="no"?>
<!DOCTYPE svg PUBLIC "-//W3C//DTD SVG 20010904//EN"
 "http://www.w3.org/TR/2001/REC-SVG-20010904/DTD/svg10.dtd">
<svg version="1.0" xmlns="http://www.w3.org/2000/svg"
 width="700.000000pt" height="700.000000pt" viewBox="0 0 700.000000 700.000000"
 preserveAspectRatio="xMidYMid meet">
<metadata>
Created by potrace 1.14, written by Peter Selinger 2001-2017
</metadata>
<g transform="translate(0.000000,700.000000) scale(0.100000,-0.100000)"
fill="#000000" stroke="none">
<path d="M3485 5469 c-245 -114 -211 -103 -263 -81 -55 24 -14 38 -367 -128
-143 -67 -287 -135 -320 -150 -33 -15 -118 -55 -189 -89 -70 -33 -130 -61
-132 -61 -1 0 -58 -26 -126 -59 -110 -52 -321 -152 -523 -246 -38 -18 -110
-52 -160 -75 -118 -55 -575 -270 -690 -323 -389 -181 -409 -192 -437 -233 -36
-51 -48 -114 -33 -186 24 -122 84 -169 340 -268 88 -34 210 -81 270 -104 l110
-43 3 -259 2 -260 -39 -22 c-93 -53 -148 -161 -138 -273 6 -74 31 -124 88
-180 176 -172 481 -42 481 206 0 81 -29 144 -96 210 l-61 59 -1 214 c-1 192 0
212 15 206 9 -3 27 -10 41 -14 14 -4 79 -29 145 -55 66 -26 165 -64 220 -85
55 -21 109 -41 120 -46 11 -4 40 -15 65 -24 l45 -16 3 -374 2 -374 34 -33 c32
-32 34 -38 32 -96 l-1 -62 89 -80 c90 -81 239 -197 305 -237 20 -12 38 -24 41
-28 3 -3 43 -28 90 -57 202 -122 477 -237 695 -291 117 -29 148 -36 230 -47
22 -4 51 -9 65 -11 47 -10 375 -12 445 -3 116 14 159 20 187 25 69 11 267 67
355 100 102 37 338 149 408 192 195 123 372 251 495 361 61 55 71 68 70 95 -1
17 -2 259 -1 537 l1 506 58 26 c31 14 129 60 217 103 88 42 192 91 230 109
100 47 260 123 410 195 72 34 171 81 220 105 50 23 111 52 137 64 60 29 96 64
121 120 39 89 13 213 -57 265 -33 25 -36 27 -286 135 -91 40 -178 78 -195 86
-16 7 -212 93 -435 190 -223 97 -429 188 -458 201 -29 13 -54 24 -57 24 -2 0
-33 14 -68 30 -36 17 -67 30 -70 30 -3 0 -44 18 -91 40 -47 22 -88 40 -90 40
-3 0 -30 11 -59 25 -30 13 -272 119 -538 236 -266 116 -502 219 -524 229 -200
90 -207 90 -380 9z m1628 -3228 c-16 -12 -38 -32 -51 -42 -41 -35 -196 -144
-277 -195 -210 -134 -419 -225 -660 -290 -53 -14 -232 -45 -293 -50 -106 -8
-243 -12 -237 -6 2 3 51 11 108 18 223 29 463 107 692 223 197 101 324 184
523 344 l112 90 0 349 0 348 53 23 52 23 3 -405 3 -406 -28 -24z"/>
</g>
</svg>
